solid OpenSCAD_Model
  facet normal -1 0 0
    outer loop
      vertex 15 11.8551 -5.01045
      vertex 15 12 -3.5
      vertex 15 12 -5.01399
    endloop
  endfacet
  facet normal -1 0 0
    outer loop
      vertex 15 1.97586 -39
      vertex 15 11.8551 -5.01045
      vertex 15 11.0244 -39
    endloop
  endfacet
  facet normal -1 0 0
    outer loop
      vertex 15 1.14458 -4.98602
      vertex 15 11.8551 -5.01045
      vertex 15 1.97586 -39
    endloop
  endfacet
  facet normal -1 0 0
    outer loop
      vertex 15 11.8551 -5.01045
      vertex 15 1.14458 -4.98602
      vertex 15 12 -3.5
    endloop
  endfacet
  facet normal -1 0 0
    outer loop
      vertex 15 1 -3.5
      vertex 15 1.14458 -4.98602
      vertex 15 1 -4.98955
    endloop
  endfacet
  facet normal -1 0 0
    outer loop
      vertex 15 1.14458 -4.98602
      vertex 15 1 -3.5
      vertex 15 12 -3.5
    endloop
  endfacet
  facet normal -0 0 1
    outer loop
      vertex 15 12 -3.5
      vertex 164 1 -3.5
      vertex 164 12 -3.5
    endloop
  endfacet
  facet normal 0 0 1
    outer loop
      vertex 164 1 -3.5
      vertex 15 12 -3.5
      vertex 15 1 -3.5
    endloop
  endfacet
  facet normal 1 0 0
    outer loop
      vertex 164 12 -3.5
      vertex 164 11.8551 -5.01045
      vertex 164 12 -5.01399
    endloop
  endfacet
  facet normal 1 0 0
    outer loop
      vertex 164 11.8551 -5.01045
      vertex 164 1.97586 -39
      vertex 164 11.0244 -39
    endloop
  endfacet
  facet normal 1 -0 0
    outer loop
      vertex 164 1.14458 -4.98602
      vertex 164 11.8551 -5.01045
      vertex 164 12 -3.5
    endloop
  endfacet
  facet normal 1 0 0
    outer loop
      vertex 164 11.8551 -5.01045
      vertex 164 1.14458 -4.98602
      vertex 164 1.97586 -39
    endloop
  endfacet
  facet normal 1 -0 0
    outer loop
      vertex 164 1 -3.5
      vertex 164 1.14458 -4.98602
      vertex 164 12 -3.5
    endloop
  endfacet
  facet normal 1 0 0
    outer loop
      vertex 164 1.14458 -4.98602
      vertex 164 1 -3.5
      vertex 164 1 -4.98955
    endloop
  endfacet
  facet normal 0 1 -0
    outer loop
      vertex 164 12 -5.01399
      vertex 15 12 -3.5
      vertex 164 12 -3.5
    endloop
  endfacet
  facet normal 0 1 0
    outer loop
      vertex 15 12 -3.5
      vertex 164 12 -5.01399
      vertex 15 12 -5.01399
    endloop
  endfacet
  facet normal 0 0 -1
    outer loop
      vertex 164 1.97586 -39
      vertex 144 3.5 -39
      vertex 164 11.0244 -39
    endloop
  endfacet
  facet normal 0 0 -1
    outer loop
      vertex 164 1.97586 -39
      vertex 129 3.5 -39
      vertex 144 3.5 -39
    endloop
  endfacet
  facet normal 0 0 -1
    outer loop
      vertex 129 3.5 -39
      vertex 50 3.5 -39
      vertex 129 9.5 -39
    endloop
  endfacet
  facet normal 0 0 -1
    outer loop
      vertex 164 1.97586 -39
      vertex 50 3.5 -39
      vertex 129 3.5 -39
    endloop
  endfacet
  facet normal 0 0 -1
    outer loop
      vertex 15 1.97586 -39
      vertex 50 3.5 -39
      vertex 164 1.97586 -39
    endloop
  endfacet
  facet normal -0 0 -1
    outer loop
      vertex 35 3.5 -39
      vertex 15 1.97586 -39
      vertex 35 9.5 -39
    endloop
  endfacet
  facet normal -0 0 -1
    outer loop
      vertex 50 3.5 -39
      vertex 15 1.97586 -39
      vertex 35 3.5 -39
    endloop
  endfacet
  facet normal 0 0 -1
    outer loop
      vertex 144 9.5 -39
      vertex 164 11.0244 -39
      vertex 144 3.5 -39
    endloop
  endfacet
  facet normal 0 0 -1
    outer loop
      vertex 129 9.5 -39
      vertex 164 11.0244 -39
      vertex 144 9.5 -39
    endloop
  endfacet
  facet normal 0 0 -1
    outer loop
      vertex 50 9.5 -39
      vertex 129 9.5 -39
      vertex 50 3.5 -39
    endloop
  endfacet
  facet normal 0 0 -1
    outer loop
      vertex 50 9.5 -39
      vertex 164 11.0244 -39
      vertex 129 9.5 -39
    endloop
  endfacet
  facet normal 0 0 -1
    outer loop
      vertex 15 11.0244 -39
      vertex 50 9.5 -39
      vertex 35 9.5 -39
    endloop
  endfacet
  facet normal 0 0 -1
    outer loop
      vertex 50 9.5 -39
      vertex 15 11.0244 -39
      vertex 164 11.0244 -39
    endloop
  endfacet
  facet normal 0 0 -1
    outer loop
      vertex 15 11.0244 -39
      vertex 35 9.5 -39
      vertex 15 1.97586 -39
    endloop
  endfacet
  facet normal 0 -1 0
    outer loop
      vertex 15 1 -4.98955
      vertex 164 1 -3.5
      vertex 15 1 -3.5
    endloop
  endfacet
  facet normal 0 -1 -0
    outer loop
      vertex 164 1 -3.5
      vertex 15 1 -4.98955
      vertex 164 1 -4.98955
    endloop
  endfacet
  facet normal 0 0.0244083 -0.999702
    outer loop
      vertex 15 1 -4.98955
      vertex 164 1.14458 -4.98602
      vertex 164 1 -4.98955
    endloop
  endfacet
  facet normal 0 0.0244083 -0.999702
    outer loop
      vertex 164 1.14458 -4.98602
      vertex 15 1 -4.98955
      vertex 15 1.14458 -4.98602
    endloop
  endfacet
  facet normal 1.52383e-19 -0.999701 -0.0244321
    outer loop
      vertex 15 1.97586 -39
      vertex 164 1.14458 -4.98602
      vertex 15 1.14458 -4.98602
    endloop
  endfacet
  facet normal 1.52383e-19 -0.999701 -0.0244321
    outer loop
      vertex 164 1.14458 -4.98602
      vertex 15 1.97586 -39
      vertex 164 1.97586 -39
    endloop
  endfacet
  facet normal 0 -0.0244234 -0.999702
    outer loop
      vertex 15 11.8551 -5.01045
      vertex 164 12 -5.01399
      vertex 164 11.8551 -5.01045
    endloop
  endfacet
  facet normal -0 -0.0244234 -0.999702
    outer loop
      vertex 164 12 -5.01399
      vertex 15 11.8551 -5.01045
      vertex 15 12 -5.01399
    endloop
  endfacet
  facet normal -1.53467e-19 0.999701 -0.0244326
    outer loop
      vertex 164 11.0244 -39
      vertex 15 11.8551 -5.01045
      vertex 164 11.8551 -5.01045
    endloop
  endfacet
  facet normal -1.53467e-19 0.999701 -0.0244326
    outer loop
      vertex 15 11.8551 -5.01045
      vertex 164 11.0244 -39
      vertex 15 11.0244 -39
    endloop
  endfacet
  facet normal 1 -0 0
    outer loop
      vertex 35 3.5 -37.5
      vertex 35 9.5 -39
      vertex 35 9.5 -37.5
    endloop
  endfacet
  facet normal 1 0 0
    outer loop
      vertex 35 9.5 -39
      vertex 35 3.5 -37.5
      vertex 35 3.5 -39
    endloop
  endfacet
  facet normal 0 0 -1
    outer loop
      vertex 35 3.5 -37.5
      vertex 50 9.5 -37.5
      vertex 50 3.5 -37.5
    endloop
  endfacet
  facet normal -0 0 -1
    outer loop
      vertex 50 9.5 -37.5
      vertex 35 3.5 -37.5
      vertex 35 9.5 -37.5
    endloop
  endfacet
  facet normal -1 0 0
    outer loop
      vertex 50 3.5 -39
      vertex 50 9.5 -37.5
      vertex 50 9.5 -39
    endloop
  endfacet
  facet normal -1 -0 0
    outer loop
      vertex 50 9.5 -37.5
      vertex 50 3.5 -39
      vertex 50 3.5 -37.5
    endloop
  endfacet
  facet normal 0 1 -0
    outer loop
      vertex 50 3.5 -39
      vertex 35 3.5 -37.5
      vertex 50 3.5 -37.5
    endloop
  endfacet
  facet normal 0 1 0
    outer loop
      vertex 35 3.5 -37.5
      vertex 50 3.5 -39
      vertex 35 3.5 -39
    endloop
  endfacet
  facet normal 0 -1 0
    outer loop
      vertex 35 9.5 -39
      vertex 50 9.5 -37.5
      vertex 35 9.5 -37.5
    endloop
  endfacet
  facet normal 0 -1 -0
    outer loop
      vertex 50 9.5 -37.5
      vertex 35 9.5 -39
      vertex 50 9.5 -39
    endloop
  endfacet
  facet normal 1 -0 0
    outer loop
      vertex 129 3.5 -37.5
      vertex 129 9.5 -39
      vertex 129 9.5 -37.5
    endloop
  endfacet
  facet normal 1 0 0
    outer loop
      vertex 129 9.5 -39
      vertex 129 3.5 -37.5
      vertex 129 3.5 -39
    endloop
  endfacet
  facet normal 0 0 -1
    outer loop
      vertex 129 3.5 -37.5
      vertex 144 9.5 -37.5
      vertex 144 3.5 -37.5
    endloop
  endfacet
  facet normal -0 0 -1
    outer loop
      vertex 144 9.5 -37.5
      vertex 129 3.5 -37.5
      vertex 129 9.5 -37.5
    endloop
  endfacet
  facet normal -1 0 0
    outer loop
      vertex 144 3.5 -39
      vertex 144 9.5 -37.5
      vertex 144 9.5 -39
    endloop
  endfacet
  facet normal -1 -0 0
    outer loop
      vertex 144 9.5 -37.5
      vertex 144 3.5 -39
      vertex 144 3.5 -37.5
    endloop
  endfacet
  facet normal 0 -1 0
    outer loop
      vertex 129 9.5 -39
      vertex 144 9.5 -37.5
      vertex 129 9.5 -37.5
    endloop
  endfacet
  facet normal 0 -1 -0
    outer loop
      vertex 144 9.5 -37.5
      vertex 129 9.5 -39
      vertex 144 9.5 -39
    endloop
  endfacet
  facet normal 0 1 -0
    outer loop
      vertex 144 3.5 -39
      vertex 129 3.5 -37.5
      vertex 144 3.5 -37.5
    endloop
  endfacet
  facet normal 0 1 0
    outer loop
      vertex 129 3.5 -37.5
      vertex 144 3.5 -39
      vertex 129 3.5 -39
    endloop
  endfacet
endsolid OpenSCAD_Model
